<?xml version="1.0" encoding="UTF-8" standalone="no"?>
<svg
   height="640px"
   version="1.1"
   width="640px"
   id="svg975"
   sodipodi:docname="wagon.svg"
   inkscape:version="1.2.2 (732a01da63, 2022-12-09)"
   xmlns:inkscape="http://www.inkscape.org/namespaces/inkscape"
   xmlns:sodipodi="http://sodipodi.sourceforge.net/DTD/sodipodi-0.dtd"
   xmlns="http://www.w3.org/2000/svg"
   xmlns:svg="http://www.w3.org/2000/svg">
  <sodipodi:namedview
     id="namedview977"
     pagecolor="#ffffff"
     bordercolor="#666666"
     borderopacity="1.0"
     inkscape:showpageshadow="2"
     inkscape:pageopacity="0.0"
     inkscape:pagecheckerboard="0"
     inkscape:deskcolor="#d1d1d1"
     showgrid="false"
     inkscape:zoom="0.7375"
     inkscape:cx="125.42373"
     inkscape:cy="386.44068"
     inkscape:window-width="1920"
     inkscape:window-height="1017"
     inkscape:window-x="-8"
     inkscape:window-y="-8"
     inkscape:window-maximized="1"
     inkscape:current-layer="svg975" />
  <defs
     id="defs731" />
  <path
     id="rect973"
     style="fill:#6abe30"
     d="m 480,600 h 40 v 40 h -40 z m -40,0 h 40 v 40 h -40 z m -280,0 h 40 v 40 h -40 z m -40,0 h 40 v 40 h -40 z m 400,-40 h 40 v 40 h -40 z m -40,0 h 40 v 40 h -40 z m -80,0 h 40 v 40 h -40 z m -200,0 h 40 v 40 h -40 z m -80,0 h 40 v 40 h -40 z m -40,0 h 40 v 40 H 80 Z m 440,-40 h 40 v 40 h -40 z m -80,0 h 40 v 40 h -40 z m -40,0 h 40 v 40 h -40 z m -200,0 h 40 v 40 h -40 z m -40,0 h 40 v 40 h -40 z m -80,0 h 40 v 40 H 80 Z m 400,-40 h 40 v 40 h -40 z m -40,0 h 40 v 40 h -40 z m -120,0 h 40 v 40 h -40 z m -40,0 h 40 v 40 h -40 z m -120,0 h 40 v 40 h -40 z m -40,0 h 40 v 40 h -40 z m 440,-40 h 40 v 40 h -40 z m -520,0 h 40 v 40 H 40 Z m 560,-40 h 40 v 40 h -40 z m -40,0 h 40 v 40 h -40 z m -40,0 h 40 v 40 h -40 z m -40,0 h 40 v 40 h -40 z m -40,0 h 40 v 40 h -40 z m -80,0 h 40 v 40 h -40 z m -40,0 h 40 v 40 h -40 z m -40,0 h 40 v 40 h -40 z m -40,0 h 40 v 40 h -40 z m -80,0 h 40 v 40 h -40 z m -40,0 h 40 v 40 h -40 z m -40,0 h 40 v 40 H 80 Z m -40,0 h 40 v 40 H 40 Z m -40,0 h 40 v 40 H 0 Z m 600,-40 h 40 v 40 h -40 z m -40,0 h 40 v 40 h -40 z m -40,0 h 40 v 40 h -40 z m -40,0 h 40 v 40 h -40 z m -40,0 h 40 v 40 h -40 z m -80,0 h 40 v 40 h -40 z m -40,0 h 40 v 40 h -40 z m -40,0 h 40 v 40 h -40 z m -40,0 h 40 v 40 h -40 z m -80,0 h 40 v 40 h -40 z m -40,0 h 40 v 40 h -40 z m -40,0 h 40 v 40 H 80 Z m -40,0 h 40 v 40 H 40 Z m -40,0 h 40 v 40 H 0 Z m 600,-40 h 40 v 40 h -40 z m -40,0 h 40 v 40 h -40 z m -40,0 h 40 v 40 h -40 z m -40,0 h 40 v 40 h -40 z m -40,0 h 40 v 40 h -40 z m -80,0 h 40 v 40 h -40 z m -40,0 h 40 v 40 h -40 z m -40,0 h 40 v 40 h -40 z m -40,0 h 40 v 40 h -40 z m -80,0 h 40 v 40 h -40 z m -40,0 h 40 v 40 H 120 Z M 0,320 h 40 v 40 H 0 Z m 600,-40 h 40 v 40 h -40 z m -40,0 h 40 v 40 h -40 z m -40,0 h 40 v 40 h -40 z m -40,0 h 40 v 40 h -40 z m -40,0 h 40 v 40 h -40 z m -80,0 h 40 v 40 h -40 z m -40,0 h 40 v 40 h -40 z m -40,0 h 40 v 40 h -40 z m -40,0 h 40 v 40 h -40 z m -80,0 h 40 v 40 h -40 z m -40,0 h 40 v 40 H 120 Z M 0,280 h 40 v 40 H 0 Z m 600,-40 h 40 v 40 h -40 z m -40,0 h 40 v 40 h -40 z m -40,0 h 40 v 40 h -40 z m -40,0 h 40 v 40 h -40 z m -40,0 h 40 v 40 h -40 z m -80,0 h 40 v 40 h -40 z m -40,0 h 40 v 40 h -40 z m -40,0 h 40 v 40 h -40 z m -40,0 h 40 v 40 h -40 z m -80,0 h 40 v 40 h -40 z m -40,0 h 40 v 40 H 120 Z M 0,240 h 40 v 40 H 0 Z m 600,-40 h 40 v 40 h -40 z m -40,0 h 40 v 40 h -40 z m -40,0 h 40 v 40 h -40 z m -40,0 h 40 v 40 h -40 z m -40,0 h 40 v 40 h -40 z m -80,0 h 40 v 40 h -40 z m -40,0 h 40 v 40 h -40 z m -40,0 h 40 v 40 h -40 z m -40,0 h 40 v 40 h -40 z m -80,0 h 40 v 40 h -40 z m -40,0 h 40 v 40 h -40 z m -40,0 h 40 v 40 H 80 Z m -80,0 h 40 v 40 H 0 Z m 600,-40 h 40 v 40 h -40 z m -40,0 h 40 v 40 h -40 z m -40,0 h 40 v 40 h -40 z m -40,0 h 40 v 40 h -40 z m -40,0 h 40 v 40 h -40 z m -80,0 h 40 v 40 h -40 z m -40,0 h 40 v 40 h -40 z m -40,0 h 40 v 40 h -40 z m -40,0 h 40 v 40 h -40 z m -80,0 h 40 v 40 h -40 z m -40,0 h 40 v 40 h -40 z m -40,0 h 40 v 40 H 80 Z m -40,0 h 40 v 40 H 40 Z m -40,0 h 40 v 40 H 0 Z m 560,-40 h 40 v 40 h -40 z m -40,0 h 40 v 40 h -40 z m -40,0 h 40 v 40 h -40 z m -360,0 h 40 v 40 h -40 z m -40,0 h 40 v 40 H 80 Z m -40,0 h 40 v 40 H 40 Z" />
</svg>
